%TF.GenerationSoftware,KiCad,Pcbnew,8.0.6*%
%TF.CreationDate,2025-01-24T20:25:43-06:00*%
%TF.ProjectId,BrushlessGimbalController_Hardware,42727573-686c-4657-9373-47696d62616c,rev?*%
%TF.SameCoordinates,Original*%
%TF.FileFunction,Soldermask,Bot*%
%TF.FilePolarity,Negative*%
%FSLAX46Y46*%
G04 Gerber Fmt 4.6, Leading zero omitted, Abs format (unit mm)*
G04 Created by KiCad (PCBNEW 8.0.6) date 2025-01-24 20:25:43*
%MOMM*%
%LPD*%
G01*
G04 APERTURE LIST*
G04 Aperture macros list*
%AMRoundRect*
0 Rectangle with rounded corners*
0 $1 Rounding radius*
0 $2 $3 $4 $5 $6 $7 $8 $9 X,Y pos of 4 corners*
0 Add a 4 corners polygon primitive as box body*
4,1,4,$2,$3,$4,$5,$6,$7,$8,$9,$2,$3,0*
0 Add four circle primitives for the rounded corners*
1,1,$1+$1,$2,$3*
1,1,$1+$1,$4,$5*
1,1,$1+$1,$6,$7*
1,1,$1+$1,$8,$9*
0 Add four rect primitives between the rounded corners*
20,1,$1+$1,$2,$3,$4,$5,0*
20,1,$1+$1,$4,$5,$6,$7,0*
20,1,$1+$1,$6,$7,$8,$9,0*
20,1,$1+$1,$8,$9,$2,$3,0*%
G04 Aperture macros list end*
%ADD10C,3.000000*%
%ADD11RoundRect,0.250000X-0.620000X-0.620000X0.620000X-0.620000X0.620000X0.620000X-0.620000X0.620000X0*%
%ADD12C,1.740000*%
%ADD13O,3.000000X5.100000*%
%ADD14R,1.600000X1.600000*%
%ADD15C,1.600000*%
%ADD16C,1.308000*%
%ADD17C,1.258000*%
%ADD18C,1.208000*%
%ADD19RoundRect,0.250000X0.620000X-0.620000X0.620000X0.620000X-0.620000X0.620000X-0.620000X-0.620000X0*%
%ADD20C,1.524000*%
%ADD21R,1.800000X1.800000*%
%ADD22C,1.800000*%
%ADD23C,1.100000*%
%ADD24C,1.400000*%
%ADD25C,4.000000*%
%ADD26C,2.000000*%
G04 APERTURE END LIST*
D10*
%TO.C,H2*%
X84582000Y-133858000D03*
%TD*%
D11*
%TO.C,Conn2*%
X137922000Y-129552000D03*
D12*
X140462000Y-129552000D03*
X143002000Y-129552000D03*
%TD*%
D10*
%TO.C,H4*%
X210058000Y-133858000D03*
%TD*%
D13*
%TO.C,Conn1*%
X99396600Y-116551800D03*
X99396600Y-124425800D03*
%TD*%
D14*
%TO.C,C2*%
X130616888Y-94996000D03*
D15*
X132616888Y-94996000D03*
%TD*%
D16*
%TO.C,U1*%
X108046000Y-83058000D03*
X110586000Y-83058000D03*
X113126000Y-83058000D03*
X115666000Y-83058000D03*
X141066000Y-83058000D03*
X110586000Y-67818000D03*
X151226000Y-77978000D03*
X118206000Y-83058000D03*
X120746000Y-83058000D03*
D17*
X111856000Y-80008000D03*
D16*
X123286000Y-83058000D03*
X125826000Y-83058000D03*
X128366000Y-83058000D03*
X130906000Y-83058000D03*
X133446000Y-83058000D03*
X135986000Y-83058000D03*
X138526000Y-83058000D03*
X138526000Y-67818000D03*
X135986000Y-67818000D03*
X133446000Y-67818000D03*
X130906000Y-67818000D03*
X128366000Y-67818000D03*
X125826000Y-67818000D03*
X123286000Y-67818000D03*
X120746000Y-67818000D03*
X118206000Y-67818000D03*
X115666000Y-67818000D03*
X113126000Y-67818000D03*
X143606000Y-83058000D03*
X146146000Y-83058000D03*
X148686000Y-83058000D03*
X151226000Y-83058000D03*
X153766000Y-83058000D03*
X156306000Y-83058000D03*
X158846000Y-83058000D03*
X161386000Y-83058000D03*
X163926000Y-83058000D03*
X163926000Y-67818000D03*
X161386000Y-67818000D03*
X158846000Y-67818000D03*
X156306000Y-67818000D03*
X153766000Y-67818000D03*
X151226000Y-67818000D03*
X148686000Y-67818000D03*
X146146000Y-67818000D03*
X143606000Y-67818000D03*
D17*
X116936000Y-80008000D03*
X114396000Y-80008000D03*
D16*
X105506000Y-83058000D03*
X141066000Y-67818000D03*
X108046000Y-67818000D03*
X151226000Y-75438000D03*
D18*
X120476000Y-72268000D03*
X118476000Y-72268000D03*
D16*
X151226000Y-70358000D03*
X151226000Y-72898000D03*
D18*
X118476000Y-70268000D03*
X120476000Y-70268000D03*
X120476000Y-74268000D03*
X118476000Y-74268000D03*
D17*
X119476000Y-80008000D03*
X122016000Y-80008000D03*
D16*
X151226000Y-80518000D03*
X105506000Y-67818000D03*
X108046000Y-70358000D03*
%TD*%
D11*
%TO.C,Conn3*%
X178808777Y-129163315D03*
D12*
X181348777Y-129163315D03*
X183888777Y-129163315D03*
%TD*%
D19*
%TO.C,Conn4*%
X208038000Y-98552000D03*
D12*
X208038000Y-96012000D03*
X208038000Y-93472000D03*
%TD*%
D10*
%TO.C,H1*%
X210058000Y-49022000D03*
%TD*%
D20*
%TO.C,Conn15*%
X129032000Y-57912000D03*
X131572000Y-57912000D03*
X134112000Y-57912000D03*
X136652000Y-57912000D03*
X136652000Y-57912000D03*
%TD*%
D21*
%TO.C,U3*%
X115824000Y-107696000D03*
D22*
X113284000Y-107696000D03*
X110744000Y-107696000D03*
%TD*%
D23*
%TO.C,J1*%
X108660500Y-50673000D03*
X111200500Y-51943000D03*
X108660500Y-53213000D03*
X111200500Y-54483000D03*
X108660500Y-55753000D03*
X111200500Y-57023000D03*
X108660500Y-58293000D03*
X111200500Y-59563000D03*
D24*
X97230500Y-48793000D03*
X99020500Y-51333000D03*
X97230500Y-58903000D03*
X99020500Y-61443000D03*
D25*
X102310500Y-49403000D03*
X102310500Y-60833000D03*
D26*
X105360500Y-47243000D03*
X105360500Y-62993000D03*
%TD*%
D14*
%TO.C,C13*%
X172134112Y-95758000D03*
D15*
X170134112Y-95758000D03*
%TD*%
D14*
%TO.C,C22*%
X175006000Y-82997113D03*
D15*
X175006000Y-80997113D03*
%TD*%
%TO.C,C18*%
X107696000Y-120102000D03*
X107696000Y-117602000D03*
%TD*%
D10*
%TO.C,H3*%
X84582000Y-49022000D03*
%TD*%
M02*
