%TF.GenerationSoftware,KiCad,Pcbnew,8.0.6*%
%TF.CreationDate,2025-01-24T20:25:43-06:00*%
%TF.ProjectId,BrushlessGimbalController_Hardware,42727573-686c-4657-9373-47696d62616c,rev?*%
%TF.SameCoordinates,Original*%
%TF.FileFunction,Paste,Top*%
%TF.FilePolarity,Positive*%
%FSLAX46Y46*%
G04 Gerber Fmt 4.6, Leading zero omitted, Abs format (unit mm)*
G04 Created by KiCad (PCBNEW 8.0.6) date 2025-01-24 20:25:43*
%MOMM*%
%LPD*%
G01*
G04 APERTURE LIST*
G04 Aperture macros list*
%AMRoundRect*
0 Rectangle with rounded corners*
0 $1 Rounding radius*
0 $2 $3 $4 $5 $6 $7 $8 $9 X,Y pos of 4 corners*
0 Add a 4 corners polygon primitive as box body*
4,1,4,$2,$3,$4,$5,$6,$7,$8,$9,$2,$3,0*
0 Add four circle primitives for the rounded corners*
1,1,$1+$1,$2,$3*
1,1,$1+$1,$4,$5*
1,1,$1+$1,$6,$7*
1,1,$1+$1,$8,$9*
0 Add four rect primitives between the rounded corners*
20,1,$1+$1,$2,$3,$4,$5,0*
20,1,$1+$1,$4,$5,$6,$7,0*
20,1,$1+$1,$6,$7,$8,$9,0*
20,1,$1+$1,$8,$9,$2,$3,0*%
G04 Aperture macros list end*
%ADD10C,0.000000*%
%ADD11RoundRect,0.237500X-0.237500X0.250000X-0.237500X-0.250000X0.237500X-0.250000X0.237500X0.250000X0*%
%ADD12RoundRect,0.237500X-0.237500X0.287500X-0.237500X-0.287500X0.237500X-0.287500X0.237500X0.287500X0*%
%ADD13RoundRect,0.237500X-0.300000X-0.237500X0.300000X-0.237500X0.300000X0.237500X-0.300000X0.237500X0*%
%ADD14RoundRect,0.237500X-0.237500X0.300000X-0.237500X-0.300000X0.237500X-0.300000X0.237500X0.300000X0*%
%ADD15RoundRect,0.150000X-0.512500X-0.150000X0.512500X-0.150000X0.512500X0.150000X-0.512500X0.150000X0*%
%ADD16RoundRect,0.237500X0.300000X0.237500X-0.300000X0.237500X-0.300000X-0.237500X0.300000X-0.237500X0*%
%ADD17RoundRect,0.150000X-0.150000X0.512500X-0.150000X-0.512500X0.150000X-0.512500X0.150000X0.512500X0*%
%ADD18RoundRect,0.237500X0.287500X0.237500X-0.287500X0.237500X-0.287500X-0.237500X0.287500X-0.237500X0*%
%ADD19RoundRect,0.237500X0.237500X-0.250000X0.237500X0.250000X-0.237500X0.250000X-0.237500X-0.250000X0*%
%ADD20RoundRect,0.237500X0.237500X-0.300000X0.237500X0.300000X-0.237500X0.300000X-0.237500X-0.300000X0*%
%ADD21RoundRect,0.237500X-0.250000X-0.237500X0.250000X-0.237500X0.250000X0.237500X-0.250000X0.237500X0*%
%ADD22O,3.000000X5.100000*%
%ADD23RoundRect,0.250000X-1.975000X1.350000X-1.975000X-1.350000X1.975000X-1.350000X1.975000X1.350000X0*%
%ADD24RoundRect,0.237500X0.250000X0.237500X-0.250000X0.237500X-0.250000X-0.237500X0.250000X-0.237500X0*%
%ADD25RoundRect,0.237500X0.237500X-0.287500X0.237500X0.287500X-0.237500X0.287500X-0.237500X-0.287500X0*%
%ADD26R,0.906066X0.192474*%
%ADD27R,0.192474X0.906066*%
%ADD28RoundRect,0.250000X-1.350000X-1.975000X1.350000X-1.975000X1.350000X1.975000X-1.350000X1.975000X0*%
G04 APERTURE END LIST*
D10*
%TO.C,U4*%
G36*
X180135365Y-105705366D02*
G01*
X178512633Y-105705366D01*
X178512633Y-103082631D01*
X180135365Y-103082631D01*
X180135365Y-105705366D01*
G37*
%TO.C,U5*%
G36*
X185715366Y-73184367D02*
G01*
X183092631Y-73184367D01*
X183092631Y-71561635D01*
X185715366Y-71561635D01*
X185715366Y-73184367D01*
G37*
%TO.C,U2*%
G36*
X140130365Y-104943366D02*
G01*
X138507633Y-104943366D01*
X138507633Y-102320631D01*
X140130365Y-102320631D01*
X140130365Y-104943366D01*
G37*
%TD*%
D11*
%TO.C,R20*%
X141351000Y-113895500D03*
X141351000Y-115720500D03*
%TD*%
D12*
%TO.C,D2*%
X105273000Y-102254000D03*
X105273000Y-104004000D03*
%TD*%
D13*
%TO.C,C19*%
X188096499Y-110998000D03*
X189821499Y-110998000D03*
%TD*%
D14*
%TO.C,C23*%
X188468000Y-79401500D03*
X188468000Y-81126500D03*
%TD*%
D15*
%TO.C,Q15*%
X202316500Y-63185000D03*
X202316500Y-65085000D03*
X204591500Y-64135000D03*
%TD*%
D16*
%TO.C,C14*%
X167987277Y-107815315D03*
X166262277Y-107815315D03*
%TD*%
D17*
%TO.C,Q11*%
X166540999Y-119004500D03*
X164640999Y-119004500D03*
X165590999Y-121279500D03*
%TD*%
D11*
%TO.C,R32*%
X169418000Y-73105000D03*
X169418000Y-74930000D03*
%TD*%
D18*
%TO.C,D5*%
X176389000Y-73152000D03*
X174639000Y-73152000D03*
%TD*%
D13*
%TO.C,C12*%
X110252500Y-112019000D03*
X111977500Y-112019000D03*
%TD*%
D14*
%TO.C,C28*%
X179070000Y-65685500D03*
X179070000Y-67410500D03*
%TD*%
D19*
%TO.C,R11*%
X135128000Y-64158500D03*
X135128000Y-62333500D03*
%TD*%
D17*
%TO.C,Q12*%
X172646777Y-119004500D03*
X170746777Y-119004500D03*
X171696777Y-121279500D03*
%TD*%
D11*
%TO.C,R27*%
X196080777Y-114149500D03*
X196080777Y-115974500D03*
%TD*%
D17*
%TO.C,Q1*%
X136901000Y-118774000D03*
X135001000Y-118774000D03*
X135951000Y-121049000D03*
%TD*%
D11*
%TO.C,R10*%
X178290999Y-94845500D03*
X178290999Y-96670500D03*
%TD*%
D13*
%TO.C,C17*%
X179460499Y-110998000D03*
X181185499Y-110998000D03*
%TD*%
D11*
%TO.C,R21*%
X147762000Y-113895500D03*
X147762000Y-115720500D03*
%TD*%
D20*
%TO.C,C26*%
X192278000Y-73252500D03*
X192278000Y-71527500D03*
%TD*%
D21*
%TO.C,R1*%
X130405500Y-99568000D03*
X132230500Y-99568000D03*
%TD*%
D12*
%TO.C,D3*%
X120650000Y-101882000D03*
X120650000Y-103632000D03*
%TD*%
D21*
%TO.C,R34*%
X196953500Y-74930000D03*
X198778500Y-74930000D03*
%TD*%
%TO.C,R35*%
X196953500Y-70237000D03*
X198778500Y-70237000D03*
%TD*%
D17*
%TO.C,Q3*%
X149601000Y-118750500D03*
X147701000Y-118750500D03*
X148651000Y-121025500D03*
%TD*%
D21*
%TO.C,R31*%
X174601500Y-75438000D03*
X176426500Y-75438000D03*
%TD*%
D19*
%TO.C,R15*%
X183896000Y-96670500D03*
X183896000Y-94845500D03*
%TD*%
D11*
%TO.C,R26*%
X189730777Y-114149500D03*
X189730777Y-115974500D03*
%TD*%
D22*
%TO.C,Conn1*%
X99396600Y-116551800D03*
X99396600Y-124425800D03*
%TD*%
D11*
%TO.C,R14*%
X130302000Y-62333500D03*
X130302000Y-64158500D03*
%TD*%
%TO.C,R17*%
X122682000Y-113895500D03*
X122682000Y-115720500D03*
%TD*%
D17*
%TO.C,Q10*%
X197893777Y-119010000D03*
X195993777Y-119010000D03*
X196943777Y-121285000D03*
%TD*%
D23*
%TO.C,R16*%
X194800999Y-99254000D03*
X194800999Y-104454000D03*
%TD*%
D21*
%TO.C,R37*%
X196953500Y-60198000D03*
X198778500Y-60198000D03*
%TD*%
D16*
%TO.C,C10*%
X116041500Y-112019000D03*
X114316500Y-112019000D03*
%TD*%
D13*
%TO.C,C5*%
X128931500Y-110744000D03*
X130656500Y-110744000D03*
%TD*%
D17*
%TO.C,Q6*%
X130739000Y-118750500D03*
X128839000Y-118750500D03*
X129789000Y-121025500D03*
%TD*%
D21*
%TO.C,R36*%
X196959500Y-65142000D03*
X198784500Y-65142000D03*
%TD*%
D20*
%TO.C,C24*%
X186436000Y-81126500D03*
X186436000Y-79401500D03*
%TD*%
D11*
%TO.C,R29*%
X170807777Y-114149500D03*
X170807777Y-115974500D03*
%TD*%
D24*
%TO.C,R13*%
X180594000Y-90424000D03*
X178769000Y-90424000D03*
%TD*%
D19*
%TO.C,R9*%
X175959676Y-96670500D03*
X175959676Y-94845500D03*
%TD*%
D13*
%TO.C,C16*%
X170587500Y-110998000D03*
X172312500Y-110998000D03*
%TD*%
D16*
%TO.C,C3*%
X132180500Y-106680000D03*
X130455500Y-106680000D03*
%TD*%
D11*
%TO.C,R24*%
X177411777Y-114149500D03*
X177411777Y-115974500D03*
%TD*%
D17*
%TO.C,Q9*%
X191617777Y-119004500D03*
X189717777Y-119004500D03*
X190667777Y-121279500D03*
%TD*%
D20*
%TO.C,C21*%
X183896000Y-81126500D03*
X183896000Y-79401500D03*
%TD*%
D25*
%TO.C,D4*%
X180830999Y-96633000D03*
X180830999Y-94883000D03*
%TD*%
D16*
%TO.C,C9*%
X117956500Y-56896000D03*
X116231500Y-56896000D03*
%TD*%
D11*
%TO.C,R19*%
X135062000Y-113895500D03*
X135062000Y-115720500D03*
%TD*%
D15*
%TO.C,Q18*%
X202316500Y-78431000D03*
X202316500Y-80331000D03*
X204591500Y-79381000D03*
%TD*%
D25*
%TO.C,D1*%
X140970000Y-96633000D03*
X140970000Y-94883000D03*
%TD*%
D17*
%TO.C,Q2*%
X143317000Y-118901000D03*
X141417000Y-118901000D03*
X142367000Y-121176000D03*
%TD*%
D15*
%TO.C,Q16*%
X202316500Y-58232000D03*
X202316500Y-60132000D03*
X204591500Y-59182000D03*
%TD*%
D14*
%TO.C,C25*%
X192278000Y-78385500D03*
X192278000Y-80110500D03*
%TD*%
D15*
%TO.C,Q17*%
X202316500Y-83378000D03*
X202316500Y-85278000D03*
X204591500Y-84328000D03*
%TD*%
D11*
%TO.C,R3*%
X138684000Y-94845500D03*
X138684000Y-96670500D03*
%TD*%
D20*
%TO.C,C27*%
X192913000Y-67004100D03*
X192913000Y-65279100D03*
%TD*%
D21*
%TO.C,R40*%
X197068500Y-80264000D03*
X198893500Y-80264000D03*
%TD*%
D19*
%TO.C,R12*%
X120650000Y-107950000D03*
X120650000Y-106125000D03*
%TD*%
D26*
%TO.C,U4*%
X177320969Y-102594001D03*
X177320969Y-102994000D03*
X177320969Y-103393999D03*
X177320969Y-103794001D03*
X177320969Y-104194000D03*
X177320969Y-104594000D03*
X177320969Y-104993999D03*
X177320969Y-105394001D03*
X177320969Y-105794000D03*
X177320969Y-106193999D03*
D27*
X177924000Y-106897033D03*
X178323999Y-106897033D03*
X178724001Y-106897033D03*
X179124000Y-106897033D03*
X179524000Y-106897033D03*
X179923999Y-106897033D03*
X180324001Y-106897033D03*
X180724000Y-106897033D03*
D26*
X181327031Y-106193999D03*
X181327031Y-105794000D03*
X181327031Y-105394001D03*
X181327031Y-104993999D03*
X181327031Y-104594000D03*
X181327031Y-104194000D03*
X181327031Y-103794001D03*
X181327031Y-103393999D03*
X181327031Y-102994000D03*
X181327031Y-102594001D03*
D27*
X180724000Y-101890967D03*
X180324001Y-101890967D03*
X179923999Y-101890967D03*
X179524000Y-101890967D03*
X179124000Y-101890967D03*
X178724001Y-101890967D03*
X178323999Y-101890967D03*
X177924000Y-101890967D03*
%TD*%
D13*
%TO.C,C7*%
X145949500Y-110744000D03*
X147674500Y-110744000D03*
%TD*%
D16*
%TO.C,C20*%
X190246000Y-99060000D03*
X188521000Y-99060000D03*
%TD*%
D24*
%TO.C,R4*%
X141120500Y-90678000D03*
X139295500Y-90678000D03*
%TD*%
D13*
%TO.C,C1*%
X130365937Y-101854000D03*
X132090937Y-101854000D03*
%TD*%
D19*
%TO.C,R5*%
X143256000Y-96670500D03*
X143256000Y-94845500D03*
%TD*%
D21*
%TO.C,R39*%
X197207500Y-85344000D03*
X199032500Y-85344000D03*
%TD*%
D17*
%TO.C,Q5*%
X124521000Y-118750500D03*
X122621000Y-118750500D03*
X123571000Y-121025500D03*
%TD*%
D19*
%TO.C,R8*%
X105273000Y-108359500D03*
X105273000Y-106534500D03*
%TD*%
D24*
%TO.C,R30*%
X176426500Y-77470000D03*
X174601500Y-77470000D03*
%TD*%
D27*
%TO.C,U5*%
X182604001Y-74376031D03*
X183004000Y-74376031D03*
X183403999Y-74376031D03*
X183804001Y-74376031D03*
X184204000Y-74376031D03*
X184604000Y-74376031D03*
X185003999Y-74376031D03*
X185404001Y-74376031D03*
X185804000Y-74376031D03*
X186203999Y-74376031D03*
D26*
X186907033Y-73773000D03*
X186907033Y-73373001D03*
X186907033Y-72972999D03*
X186907033Y-72573000D03*
X186907033Y-72173000D03*
X186907033Y-71773001D03*
X186907033Y-71372999D03*
X186907033Y-70973000D03*
D27*
X186203999Y-70369969D03*
X185804000Y-70369969D03*
X185404001Y-70369969D03*
X185003999Y-70369969D03*
X184604000Y-70369969D03*
X184204000Y-70369969D03*
X183804001Y-70369969D03*
X183403999Y-70369969D03*
X183004000Y-70369969D03*
X182604001Y-70369969D03*
D26*
X181900967Y-70973000D03*
X181900967Y-71372999D03*
X181900967Y-71773001D03*
X181900967Y-72173000D03*
X181900967Y-72573000D03*
X181900967Y-72972999D03*
X181900967Y-73373001D03*
X181900967Y-73773000D03*
%TD*%
D11*
%TO.C,R25*%
X183634777Y-114149500D03*
X183634777Y-115974500D03*
%TD*%
D21*
%TO.C,R7*%
X166212277Y-100957315D03*
X168037277Y-100957315D03*
%TD*%
D15*
%TO.C,Q14*%
X202316500Y-68271000D03*
X202316500Y-70171000D03*
X204591500Y-69221000D03*
%TD*%
D19*
%TO.C,R23*%
X181102000Y-81176500D03*
X181102000Y-79351500D03*
%TD*%
D15*
%TO.C,Q13*%
X202310500Y-73097000D03*
X202310500Y-74997000D03*
X204585500Y-74047000D03*
%TD*%
D11*
%TO.C,R28*%
X164584777Y-114149500D03*
X164584777Y-115974500D03*
%TD*%
D13*
%TO.C,C15*%
X166262277Y-105529315D03*
X167987277Y-105529315D03*
%TD*%
%TO.C,C4*%
X130455500Y-104140000D03*
X132180500Y-104140000D03*
%TD*%
D11*
%TO.C,R18*%
X128915937Y-113895500D03*
X128915937Y-115720500D03*
%TD*%
D13*
%TO.C,C6*%
X137567500Y-110744000D03*
X139292500Y-110744000D03*
%TD*%
D11*
%TO.C,R22*%
X154432000Y-113895500D03*
X154432000Y-115720500D03*
%TD*%
D17*
%TO.C,Q4*%
X156398000Y-118750500D03*
X154498000Y-118750500D03*
X155448000Y-121025500D03*
%TD*%
D28*
%TO.C,R38*%
X180026000Y-60706000D03*
X185226000Y-60706000D03*
%TD*%
D19*
%TO.C,R2*%
X136144000Y-96670500D03*
X136144000Y-94845500D03*
%TD*%
D16*
%TO.C,C8*%
X148436500Y-101600000D03*
X146711500Y-101600000D03*
%TD*%
D26*
%TO.C,U2*%
X137315969Y-101832001D03*
X137315969Y-102232000D03*
X137315969Y-102631999D03*
X137315969Y-103032001D03*
X137315969Y-103432000D03*
X137315969Y-103832000D03*
X137315969Y-104231999D03*
X137315969Y-104632001D03*
X137315969Y-105032000D03*
X137315969Y-105431999D03*
D27*
X137919000Y-106135033D03*
X138318999Y-106135033D03*
X138719001Y-106135033D03*
X139119000Y-106135033D03*
X139519000Y-106135033D03*
X139918999Y-106135033D03*
X140319001Y-106135033D03*
X140719000Y-106135033D03*
D26*
X141322031Y-105431999D03*
X141322031Y-105032000D03*
X141322031Y-104632001D03*
X141322031Y-104231999D03*
X141322031Y-103832000D03*
X141322031Y-103432000D03*
X141322031Y-103032001D03*
X141322031Y-102631999D03*
X141322031Y-102232000D03*
X141322031Y-101832001D03*
D27*
X140719000Y-101128967D03*
X140319001Y-101128967D03*
X139918999Y-101128967D03*
X139519000Y-101128967D03*
X139119000Y-101128967D03*
X138719001Y-101128967D03*
X138318999Y-101128967D03*
X137919000Y-101128967D03*
%TD*%
D17*
%TO.C,Q8*%
X185473777Y-119004500D03*
X183573777Y-119004500D03*
X184523777Y-121279500D03*
%TD*%
%TO.C,Q7*%
X179240999Y-119004500D03*
X177340999Y-119004500D03*
X178290999Y-121279500D03*
%TD*%
D13*
%TO.C,C11*%
X166262277Y-103243315D03*
X167987277Y-103243315D03*
%TD*%
D24*
%TO.C,R33*%
X176426500Y-71120000D03*
X174601500Y-71120000D03*
%TD*%
D23*
%TO.C,R6*%
X154686000Y-100016000D03*
X154686000Y-105216000D03*
%TD*%
M02*
