M48
; DRILL file {KiCad 8.0.6} date 2025-01-24T20:25:58-0600
; FORMAT={-:-/ absolute / inch / decimal}
; #@! TF.CreationDate,2025-01-24T20:25:58-06:00
; #@! TF.GenerationSoftware,Kicad,Pcbnew,8.0.6
; #@! TF.FileFunction,Plated,1,2,PTH
FMAT,2
INCH
; #@! TA.AperFunction,Plated,PTH,ViaDrill
T1C0.0118
; #@! TA.AperFunction,Plated,PTH,ComponentDrill
T2C0.0276
; #@! TA.AperFunction,Plated,PTH,ComponentDrill
T3C0.0295
; #@! TA.AperFunction,Plated,PTH,ComponentDrill
T4C0.0315
; #@! TA.AperFunction,Plated,PTH,ComponentDrill
T5C0.0354
; #@! TA.AperFunction,Plated,PTH,ComponentDrill
T6C0.0394
; #@! TA.AperFunction,Plated,PTH,ComponentDrill
T7C0.0402
; #@! TA.AperFunction,Plated,PTH,ComponentDrill
T8C0.0429
; #@! TA.AperFunction,Plated,PTH,ComponentDrill
T9C0.0630
; #@! TA.AperFunction,Plated,PTH,ComponentDrill
T10C0.0787
; #@! TA.AperFunction,Plated,PTH,ComponentDrill
T11C0.1280
%
G90
G05
T1
X4.0137Y-2.1363
X4.378Y-2.095
X4.43Y-2.74
X5.0Y-4.7648
X5.072Y-4.238
X5.09Y-4.41
X5.16Y-4.895
X5.2Y-2.57
X5.26Y-4.03
X5.26Y-4.7903
X5.29Y-3.91
X5.35Y-3.5336
X5.37Y-2.52
X5.41Y-2.75
X5.4459Y-4.4159
X5.4516Y-4.7284
X5.485Y-4.08
X5.5078Y-3.8878
X5.54Y-3.9336
X5.5564Y-3.9067
X5.6Y-2.95
X5.6Y-3.1764
X5.6Y-3.38
X5.62Y-3.86
X5.66Y-4.895
X5.6781Y-3.5147
X5.68Y-3.55
X5.6827Y-3.9139
X5.71Y-4.04
X5.7183Y-3.9083
X5.735Y-3.505
X5.75Y-3.9
X5.76Y-4.79
X5.795Y-3.515
X5.82Y-4.42
X5.84Y-2.82
X5.88Y-3.16
X5.89Y-4.05
X5.94Y-4.7648
X5.99Y-3.72
X6.04Y-2.75
X6.04Y-3.15
X6.34Y-3.18
X6.37Y-4.568
X6.3936Y-3.12
X6.41Y-3.05
X6.4683Y-2.9517
X6.54Y-3.35
X6.55Y-2.73
X6.57Y-3.22
X6.5934Y-2.7236
X6.6Y-2.8
X6.61Y-2.87
X6.62Y-2.7436
X6.62Y-3.9
X6.62Y-4.7308
X6.67Y-4.07
X6.71Y-3.12
X6.71Y-3.55
X6.75Y-4.4182
X6.76Y-3.39
X6.79Y-2.93
X6.81Y-3.4
X6.83Y-4.89
X6.88Y-2.47
X6.9122Y-2.8541
X6.92Y-4.8
X6.94Y-3.91
X7.03Y-3.41
X7.06Y-4.11
X7.07Y-3.81
X7.0787Y-3.0387
X7.09Y-2.83
X7.12Y-4.43
X7.13Y-4.7292
X7.142Y-3.932
X7.15Y-3.4464
X7.17Y-3.86
X7.18Y-3.14
X7.18Y-3.41
X7.2Y-2.66
X7.238Y-3.283
X7.26Y-2.8493
X7.2869Y-3.9169
X7.29Y-3.6
X7.29Y-3.87
X7.29Y-4.89
X7.3Y-3.45
X7.3Y-3.5
X7.3Y-3.55
X7.33Y-3.92
X7.36Y-4.03
X7.4Y-4.78
X7.48Y-4.43
X7.56Y-3.98
X7.59Y-4.7748
X7.63Y-3.14
X7.64Y-2.85
X7.65Y-2.57
X7.867Y-3.032
X8.0108Y-2.83
X8.0149Y-2.4851
X8.0548Y-3.25
X8.09Y-2.62
X8.09Y-3.01
X8.2Y-2.73
X8.2Y-3.12
T2
X4.6644Y-2.7665
X4.6644Y-2.8452
X4.6644Y-2.9239
X4.7431Y-2.7665
X4.7431Y-2.8452
X4.7431Y-2.9239
T3
X4.4038Y-3.1499
X4.5038Y-3.1499
X4.6038Y-3.1499
X4.7038Y-3.1499
X4.8038Y-3.1499
T4
X4.1538Y-2.67
X4.1538Y-3.27
X4.24Y-4.63
X4.24Y-4.7284
X4.2538Y-2.67
X4.2538Y-2.77
X4.2538Y-3.27
X4.3538Y-2.67
X4.3538Y-3.27
X4.4538Y-2.67
X4.4538Y-3.27
X4.5538Y-2.67
X4.5538Y-3.27
X4.6538Y-2.67
X4.6538Y-3.27
X4.7538Y-2.67
X4.7538Y-3.27
X4.8538Y-2.67
X4.8538Y-3.27
X4.9538Y-2.67
X4.9538Y-3.27
X5.0538Y-2.67
X5.0538Y-3.27
X5.1424Y-3.74
X5.1538Y-2.67
X5.1538Y-3.27
X5.2211Y-3.74
X5.2538Y-2.67
X5.2538Y-3.27
X5.3538Y-2.67
X5.3538Y-3.27
X5.4538Y-2.67
X5.4538Y-3.27
X5.5538Y-2.67
X5.5538Y-3.27
X5.6538Y-2.67
X5.6538Y-3.27
X5.7538Y-2.67
X5.7538Y-3.27
X5.8538Y-2.67
X5.8538Y-3.27
X5.9538Y-2.67
X5.9538Y-2.77
X5.9538Y-2.87
X5.9538Y-2.97
X5.9538Y-3.07
X5.9538Y-3.17
X5.9538Y-3.27
X6.0538Y-2.67
X6.0538Y-3.27
X6.1538Y-2.67
X6.1538Y-3.27
X6.2538Y-2.67
X6.2538Y-3.27
X6.3538Y-2.67
X6.3538Y-3.27
X6.4538Y-2.67
X6.4538Y-3.27
X6.6982Y-3.77
X6.7769Y-3.77
X6.89Y-3.1889
X6.89Y-3.2676
T5
X4.278Y-1.995
X4.278Y-2.095
X4.278Y-2.195
X4.278Y-2.295
X4.378Y-2.045
X4.378Y-2.145
X4.378Y-2.245
X4.378Y-2.345
X5.08Y-2.28
X5.18Y-2.28
X5.28Y-2.28
X5.38Y-2.28
X5.38Y-2.28
T6
X4.36Y-4.24
X4.46Y-4.24
X4.56Y-4.24
T7
X3.828Y-1.921
X3.828Y-2.319
X3.8984Y-2.021
X3.8984Y-2.419
T8
X5.43Y-5.1005
X5.53Y-5.1005
X5.63Y-5.1005
X7.0397Y-5.0852
X7.1397Y-5.0852
X7.2397Y-5.0852
X8.1905Y-3.68
X8.1905Y-3.78
X8.1905Y-3.88
T9
X4.1481Y-1.86
X4.1481Y-2.48
T11
X4.028Y-1.945
X4.028Y-2.395
T10
G00X3.9133Y-4.5473
M15
G01X3.9133Y-4.63
M16
G05
G00X3.9133Y-4.8573
M15
G01X3.9133Y-4.94
M16
G05
M30
